<svg width="275" height="202" viewBox="0 0 275 202" fill="none" xmlns="http://www.w3.org/2000/svg">
<path d="M46.4834 78.7832C49.8335 67.6178 43.5016 55.8495 32.3407 52.498C21.1797 49.1465 9.41614 55.481 6.06599 66.6464C2.71584 77.8118 9.04774 89.5801 20.2087 92.9316C31.3697 96.2831 43.1332 89.9486 46.4834 78.7832Z" fill="#F9518C"/>
<path d="M37.6598 84.1121C43.9482 77.8211 43.9482 67.6214 37.6598 61.3304C31.3713 55.0394 21.1756 55.0394 14.8871 61.3304C8.59866 67.6214 8.59865 77.8211 14.8871 84.1121C21.1756 90.4031 31.3713 90.4031 37.6598 84.1121Z" fill="white"/>
<path d="M30.7179 83.3472C36.58 80.8887 39.34 74.1416 36.8825 68.2771C34.425 62.4126 27.6806 59.6515 21.8185 62.11C15.9563 64.5685 13.1963 71.3156 15.6538 77.1801C18.1113 83.0446 24.8557 85.8057 30.7179 83.3472Z" fill="#F9518C"/>
<path d="M26.2734 79.0884C29.7877 79.0884 32.6366 76.2384 32.6366 72.7227C32.6366 69.2069 29.7877 66.3569 26.2734 66.3569C22.7591 66.3569 19.9102 69.2069 19.9102 72.7227C19.9102 76.2384 22.7591 79.0884 26.2734 79.0884Z" fill="white"/>
<path d="M29.1446 72.7228C29.1446 74.3091 27.8596 75.6014 26.2671 75.6014C24.6746 75.6014 23.3896 74.316 23.3896 72.7228C23.3896 71.1365 24.6746 69.8442 26.2671 69.8442C27.8596 69.8442 29.1446 71.1297 29.1446 72.7228Z" fill="#F9518C"/>
<path d="M55.0914 43.2434L27.8242 70.5215L28.4766 71.1742L55.7438 43.8961L55.0914 43.2434Z" fill="white"/>
<path d="M29.8346 71.7655L26.2737 72.7227L27.2237 69.1535L29.8346 71.7655Z" fill="white"/>
<path d="M59.9761 41.7897L54.8637 46.9042L50.8517 48.1281L52.0751 44.1145L57.1875 39L55.9641 43.0136L59.9761 41.7897Z" fill="white"/>
<path d="M274.998 3.99951C165.641 3.99951 76.998 92.6504 76.998 202H274.998V3.99951Z" fill="#FFEAC5"/>
<path d="M125.734 102.767L120.777 86.0938C120.777 86.0938 119.989 82.5792 115.479 80.0106L92.9864 68.6988C92.9864 68.6988 90.4189 70.7282 93.5406 72.8492C93.627 73.3069 98.1672 75.3923 98.1672 75.3923C98.1672 75.3923 102.86 77.6862 104.101 79.2274C104.101 79.2274 101.009 78.5153 100.643 81.5467L100.608 83.2099C100.608 83.2099 97.1199 83.5202 99.1332 87.8689C99.1332 87.8689 96.403 90.2849 98.5282 92.1261L105.458 99.3181C105.458 99.3181 107.385 100.132 107.207 97.0344C107.207 97.0344 108.305 101.556 113.466 100.096L115.098 109.246L126.73 107.024L125.734 102.767Z" fill="#F9518C"/>
<path d="M108.036 75.1075C108.036 75.1075 105.794 77.8998 108.707 80.7736L112.978 84.5679C112.978 84.5679 110.308 95.6611 117.37 98.2754C117.37 98.2754 122.465 99.252 123.278 94.5421C123.482 93.357 123.044 91.7548 122.841 90.6003C122.383 88.0063 121.667 84.456 119.801 82.4266C118.865 81.4094 117.426 80.7024 116.257 79.9649C115.047 79.207 113.827 78.4593 112.601 77.7218C112.306 77.554 108.183 74.9244 108.036 75.1075Z" fill="#F9518C"/>
<path d="M98.5743 75.3821C98.4777 75.3821 98.3811 75.3364 98.3252 75.2499C98.2337 75.1126 98.2692 74.9244 98.4065 74.8328C98.7319 74.6141 99.0166 73.8054 99.1132 73.3476C99.1488 73.1849 99.3115 73.0832 99.4691 73.1188C99.6318 73.1544 99.7335 73.312 99.6979 73.4748C99.6674 73.6172 99.3674 74.899 98.737 75.3262C98.6912 75.3669 98.6353 75.3821 98.5743 75.3821Z" fill="#1B1A20"/>
<path d="M108.936 89.5169L108.778 89.3694C107.7 88.3877 106.348 88.0012 104.914 87.5892C104.639 87.5078 104.36 87.4315 104.085 87.345L103.867 87.2789C102.667 86.9178 100.658 86.3176 100.481 84.8019C100.475 84.7663 100.303 83.2404 100.303 83.2404L100.897 83.1692C100.897 83.1692 101.075 84.6951 101.075 84.7307C101.203 85.8497 102.977 86.3837 104.034 86.6991L104.253 86.7652C104.523 86.8466 104.797 86.928 105.072 87.0043C106.434 87.3959 107.837 87.7977 108.986 88.7539C109.149 88.6064 109.383 88.3318 109.419 87.9096C109.464 87.345 109.154 86.3736 107.431 84.9596L105.921 84.2984C105.768 84.2322 105.702 84.0542 105.768 83.9016C105.834 83.7491 106.012 83.6829 106.165 83.7491L107.782 84.4713C109.358 85.7581 110.105 86.9331 110.019 87.9707C109.932 88.932 109.154 89.3795 109.119 89.3999L108.936 89.5169Z" fill="#1B1A20"/>
<path d="M108.732 93.6573C108.564 93.6573 108.401 93.6369 108.259 93.6166C104.609 93.1537 101.014 91.0124 98.8837 88.042C98.7871 87.9098 98.8176 87.7216 98.9549 87.625C99.0921 87.5283 99.2752 87.5588 99.3718 87.6962C101.411 90.5394 104.847 92.5841 108.34 93.0266C108.579 93.0571 108.823 93.0876 109.027 93.0215C109.159 92.9757 109.245 92.8892 109.296 92.7519C109.449 92.3145 109.189 91.521 108.95 91.1396C108.351 90.1833 107.283 89.4357 106.419 88.8914C106.276 88.805 106.235 88.6168 106.327 88.4794C106.413 88.337 106.602 88.2963 106.739 88.3879C107.654 88.9677 108.793 89.7663 109.459 90.8293C109.744 91.2871 110.11 92.2687 109.861 92.9604C109.749 93.2707 109.53 93.4894 109.22 93.5962C109.057 93.642 108.889 93.6573 108.732 93.6573Z" fill="#1B1A20"/>
<path d="M106.378 99.5266C106.286 99.5266 106.2 99.4859 106.139 99.4096C106.037 99.2773 106.063 99.0891 106.195 98.9874C106.81 98.5195 107.095 98.0058 107.079 97.4259C107.029 95.839 104.71 94.2826 104.685 94.2674C104.548 94.1758 104.507 93.9876 104.598 93.8503C104.69 93.713 104.878 93.6723 105.015 93.7638C105.122 93.835 107.613 95.5084 107.679 97.4005C107.705 98.1787 107.329 98.8704 106.561 99.4604C106.505 99.5062 106.444 99.5266 106.378 99.5266Z" fill="#1B1A20"/>
<path d="M101.93 85.504C101.91 85.504 101.889 85.504 101.869 85.4989C101.706 85.4633 101.605 85.3056 101.64 85.1428C101.655 85.0716 102.042 83.3576 103.659 82.9151C103.816 82.8693 103.984 82.9659 104.025 83.1236C104.07 83.2813 103.974 83.4491 103.816 83.4898C102.545 83.8357 102.23 85.2496 102.225 85.2649C102.189 85.4073 102.067 85.504 101.93 85.504Z" fill="#1B1A20"/>
<path d="M104.11 91.058C104.024 91.058 103.932 91.0173 103.876 90.9461C103.775 90.8139 103.795 90.6257 103.927 90.524C104.817 89.817 104.253 88.3827 104.242 88.3674C104.181 88.2148 104.253 88.0368 104.405 87.9757C104.558 87.9147 104.736 87.9859 104.797 88.1385C104.827 88.2148 105.534 90.0052 104.298 90.9868C104.242 91.0377 104.176 91.058 104.11 91.058Z" fill="#1B1A20"/>
<path d="M103.308 95.8237C103.211 95.8237 103.115 95.7779 103.059 95.6915C102.967 95.5542 103.003 95.366 103.14 95.2744C103.648 94.9336 103.292 94.1605 103.277 94.1249C103.206 93.9774 103.272 93.7943 103.42 93.7282C103.567 93.657 103.745 93.718 103.816 93.8706C104.025 94.308 104.223 95.2693 103.47 95.7729C103.425 95.8085 103.364 95.8237 103.308 95.8237Z" fill="#1B1A20"/>
<path d="M117.37 98.5755C117.355 98.5755 117.34 98.5755 117.325 98.5704C115.891 98.3365 114.488 96.6936 114.427 96.6224C111.147 93.2655 112.413 85.9158 112.652 84.6747L110.573 82.7521C108.432 81.3992 107.217 79.8784 106.953 78.2305C106.653 76.3231 107.761 74.9702 107.807 74.9142C107.914 74.7871 108.102 74.7718 108.229 74.8786C108.356 74.9854 108.371 75.1736 108.265 75.3008C108.249 75.316 107.283 76.5113 107.543 78.144C107.776 79.619 108.91 81.0025 110.908 82.2588L110.954 82.2944L113.303 84.4662L113.267 84.6341C113.252 84.7154 111.564 92.8433 114.864 96.2257C114.889 96.2562 116.201 97.7871 117.416 97.9855C117.579 98.0109 117.691 98.1635 117.665 98.3314C117.64 98.4738 117.513 98.5755 117.37 98.5755Z" fill="#1B1A20"/>
<path d="M107.019 108.997C106.673 109.419 106.557 110.015 106.592 110.538C106.618 110.889 106.79 113.056 107.528 112.771L129.359 104.384L127.722 101.205C127.005 99.8267 121.916 102.36 120.955 102.756C116.674 104.506 112.48 106.439 108.224 108.244C107.873 108.392 107.517 108.55 107.223 108.789C107.146 108.85 107.08 108.921 107.019 108.997Z" fill="#F9B223"/>
<path d="M125.607 103.977C125.475 103.977 125.348 103.906 125.277 103.784L124.138 101.734C124.036 101.551 124.102 101.322 124.285 101.225C124.463 101.124 124.692 101.19 124.794 101.373L125.933 103.423C126.034 103.606 125.968 103.835 125.785 103.931C125.729 103.962 125.668 103.977 125.607 103.977Z" fill="#1B1A20"/>
<path d="M108.453 112.476L108.275 112.324C107.258 111.459 107.833 109.836 107.858 109.77C107.929 109.577 108.143 109.475 108.341 109.547C108.534 109.618 108.636 109.831 108.565 110.03C108.555 110.055 108.219 111.022 108.616 111.591C111.509 110.35 128.104 103.285 130.254 103.85C130.452 103.901 130.574 104.109 130.524 104.308C130.473 104.506 130.264 104.628 130.066 104.577C128.581 104.186 116.156 109.16 108.672 112.385L108.453 112.476Z" fill="#1B1A20"/>
<path d="M137.536 172.784C135.512 172.784 133.463 172.27 131.587 171.187C125.872 167.891 123.91 160.587 127.204 154.875C149.463 116.23 172.495 96.7851 173.461 95.9764C178.525 91.7497 186.055 92.4313 190.28 97.5023C194.499 102.563 193.823 110.081 188.775 114.312C188.439 114.597 167.802 132.236 147.897 166.803C145.681 170.638 141.664 172.784 137.536 172.784Z" fill="#FFA6BC"/>
<path d="M126.238 164.956L106.638 116.469C105.937 114.729 106.776 112.746 108.514 112.039L127.509 104.353C129.248 103.651 131.231 104.491 131.937 106.23L151.537 154.718L126.238 164.956Z" fill="#FFA6BC"/>
<path d="M235.574 201.999H160.861L164.71 122.928C164.71 102.477 177.431 85.9004 197.875 85.9004H206.06C222.36 85.9004 235.569 99.1196 235.569 115.421V201.999H235.574Z" fill="#FFA6BC"/>
<path d="M184.325 49.3149C184.325 49.3149 182.616 48.4604 183.557 46.3293C183.557 46.3293 180.486 41.5533 183.216 38.1404C183.516 37.764 184.121 37.4792 184.553 37.3011C185.677 36.8383 186.897 37.3673 188.056 37.1587C189.18 36.9604 190.085 36.2432 190.812 35.3989C191.737 34.3206 192.465 32.9829 193.624 32.1335C196.181 30.2617 199.247 30.5822 201.855 32.1945C202.201 32.4081 202.536 32.637 202.857 32.8812C204.489 34.1019 206.05 35.2615 207.275 36.9248C208.749 38.9186 210.051 41.0599 211.79 42.8401C212.669 43.7403 213.671 44.5694 214.794 45.1594C216.569 46.0902 217.703 47.2651 218.14 49.2488C219.172 53.9129 217.179 58.7041 214.967 62.6918C214.967 62.6918 209.848 71.9081 202.231 71.7911C202.236 71.7809 180.745 73.3729 184.325 49.3149Z" fill="#031044"/>
<path d="M191.173 87.3959C191.173 87.3705 191.245 84.6697 191.321 81.74C191.412 78.2457 191.514 74.426 191.514 74.426L207.26 68.3784L208.399 67.941L209.594 85.8599C210.239 95.5289 190.894 98.0364 191.173 87.3959Z" fill="#F9518C"/>
<path d="M207.26 68.3784C202.049 81.4399 194.504 82.1164 191.316 81.74C191.407 78.2458 191.509 74.426 191.509 74.426L207.26 68.3784Z" fill="#1B1A20"/>
<path d="M216.111 65.6927C216.111 68.1442 214.123 70.1279 211.678 70.1279C210.488 70.1279 209.41 69.6599 208.617 68.897C208.805 69.0801 206.563 71.5317 206.329 71.7657C205.475 72.6303 204.529 73.4492 203.584 74.2122C199.033 77.8844 192.785 79.5782 187.36 76.7502C184.508 75.2599 182.215 72.7677 181.01 69.7769C180.379 68.2104 180.059 66.5268 180.059 64.8331C180.059 62.0153 180.939 59.3959 182.449 57.2342C182.515 47.0617 189.058 38.8372 197.117 38.8372C205.221 38.8372 211.785 47.1431 211.785 57.3817C211.785 58.7092 211.678 60.0062 211.464 61.2574C211.53 61.2524 211.607 61.2524 211.673 61.2524C214.123 61.2574 216.111 63.2462 216.111 65.6927Z" fill="#F9518C"/>
<path d="M191.158 50.5509C191.153 50.8662 190.965 51.1765 190.66 51.3545C190.248 51.5935 189.785 51.4918 189.338 51.3952C188.646 51.2426 187.945 51.1256 187.233 51.0697C186.892 51.0442 186.546 51.029 186.206 51.0239C185.87 51.0188 185.53 51.1154 185.199 51.029C184.986 50.973 184.838 50.8306 184.777 50.6475C184.721 50.4695 184.772 50.2711 184.914 50.1287C185.062 49.9812 185.321 49.9151 185.535 49.854C187.045 49.4115 188.621 49.2793 190.182 49.5794C190.487 49.6404 190.751 49.7472 190.939 49.9659C191.092 50.149 191.163 50.3525 191.158 50.5509Z" fill="#031044"/>
<path d="M197.167 51.8173C197.035 52.1327 197.091 52.5243 197.32 52.8346C197.63 53.2516 198.133 53.3483 198.621 53.4449C199.379 53.5924 200.131 53.7806 200.863 54.0298C201.214 54.1519 201.565 54.2892 201.911 54.4266C202.246 54.5639 202.551 54.808 202.917 54.8691C203.156 54.9047 203.365 54.8284 203.502 54.6707C203.634 54.513 203.67 54.2943 203.588 54.096C203.502 53.8823 203.273 53.7043 203.09 53.5517C201.773 52.4582 200.253 51.6495 198.57 51.2782C198.245 51.207 197.93 51.2019 197.645 51.3392C197.406 51.446 197.248 51.619 197.167 51.8173Z" fill="#031044"/>
<path d="M189.525 55.6272C189.525 56.5936 188.981 57.3769 188.31 57.3769C187.639 57.3769 187.095 56.5936 187.095 55.6272C187.095 54.6608 187.639 53.8775 188.31 53.8775C188.981 53.8775 189.525 54.6608 189.525 55.6272Z" fill="#1B1A20"/>
<path d="M199.252 58.1446C199.252 59.111 198.708 59.8943 198.037 59.8943C197.366 59.8943 196.822 59.111 196.822 58.1446C196.822 57.1783 197.366 56.395 198.037 56.395C198.708 56.395 199.252 57.1783 199.252 58.1446Z" fill="#1B1A20"/>
<path d="M191.849 69.0038C189.419 69.0038 187.35 68.0018 186.821 66.5726C186.735 66.3386 186.852 66.0792 187.085 65.9927C187.319 65.9063 187.579 66.0233 187.665 66.2572C188.056 67.3101 189.856 68.1035 191.849 68.1035C194.036 68.1035 195.947 67.1575 196.1 65.9978C196.135 65.7537 196.359 65.5808 196.608 65.6113C196.852 65.6469 197.025 65.8707 196.995 66.1199C196.776 67.7628 194.564 69.0038 191.849 69.0038Z" fill="#1B1A20"/>
<path d="M192.856 39.7019C192.856 39.7019 192.459 46.1868 201.952 48.1756C203.157 48.4299 204.301 49.2793 204.88 50.3576C206.029 52.4785 204.855 55.0166 205.053 57.2698C205.17 58.6126 205.633 60.1435 206.7 61.0692C208.099 62.2849 210.092 61.8322 211.673 61.2574C211.673 61.2574 216.335 59.4925 214.911 53.2364C214.911 53.2364 213.549 42.0873 201.718 36.3449C201.723 36.3449 192.912 32.3624 192.856 39.7019Z" fill="#031044"/>
<path d="M211.47 61.5624C211.454 61.5624 211.434 61.5624 211.414 61.5573C208.287 60.9927 206.37 58.709 206.64 55.8658C206.711 55.1435 206.884 54.4213 207.052 53.7245C207.382 52.3461 207.697 51.0389 207.275 49.7165C206.802 48.2364 205.613 47.8193 204.245 47.3361C203.976 47.2395 203.701 47.1479 203.432 47.0411C200.681 45.973 197.91 44.6658 196.263 42.3974C195.643 41.5429 195.358 40.785 195.398 40.078C195.409 39.9102 195.551 39.7881 195.714 39.7932C195.881 39.8034 196.003 39.9458 195.998 40.1085C195.968 40.6629 196.222 41.3089 196.751 42.0413C198.307 44.1877 200.986 45.444 203.65 46.4816C203.915 46.5833 204.179 46.68 204.443 46.7715C205.836 47.2598 207.28 47.7684 207.85 49.5334C208.328 51.0186 207.977 52.4631 207.641 53.8669C207.479 54.5433 207.311 55.2453 207.245 55.9268C207.001 58.4801 208.684 60.4587 211.526 60.9673C211.688 60.9978 211.795 61.1504 211.77 61.3183C211.739 61.4607 211.612 61.5624 211.47 61.5624Z" fill="#6386FE"/>
<path d="M209.426 66.2878C209.339 66.2878 209.253 66.2623 209.176 66.2115C208.968 66.0741 208.917 65.7944 209.054 65.5859C209.1 65.5146 210.219 63.882 211.805 63.7345C212.634 63.6582 213.412 63.9939 214.128 64.7263C214.301 64.9043 214.296 65.1891 214.118 65.3621C213.94 65.535 213.656 65.5299 213.483 65.3519C212.959 64.8178 212.435 64.5788 211.886 64.6296C210.737 64.7314 209.807 66.069 209.802 66.0843C209.71 66.2165 209.568 66.2878 209.426 66.2878Z" fill="#1B1A20"/>
<path d="M191.936 56.7052C191.936 53.7654 189.546 51.3748 186.608 51.3748C183.669 51.3748 181.279 53.7654 181.279 56.7052C181.279 59.6451 183.669 62.0356 186.608 62.0356C189.541 62.0356 191.936 59.6451 191.936 56.7052ZM190.909 56.7052C190.909 59.0805 188.977 61.0133 186.602 61.0133C184.228 61.0133 182.296 59.0805 182.296 56.7052C182.296 54.33 184.228 52.3972 186.602 52.3972C188.977 52.3921 190.909 54.3249 190.909 56.7052Z" fill="white"/>
<path d="M204.331 59.1466C204.331 56.2068 201.942 53.8162 199.003 53.8162C196.064 53.8162 193.675 56.2068 193.675 59.1466C193.675 62.0865 196.064 64.477 199.003 64.477C201.936 64.4821 204.331 62.0916 204.331 59.1466ZM203.304 59.1466C203.304 61.5219 201.372 63.4547 198.998 63.4547C196.623 63.4547 194.691 61.5219 194.691 59.1466C194.691 56.7714 196.623 54.8386 198.998 54.8386C201.372 54.8386 203.304 56.7714 203.304 59.1466Z" fill="white"/>
<path d="M190.583 63.9432C190.542 63.9432 190.497 63.9381 190.456 63.9229C189.526 63.6482 188.88 62.7836 188.88 61.8121C188.88 60.6015 189.866 59.6148 191.076 59.6148C191.59 59.6148 192.088 59.7928 192.48 60.1234C192.673 60.2811 192.698 60.5659 192.541 60.7592C192.383 60.9525 192.098 60.9779 191.905 60.8203C191.671 60.627 191.376 60.5202 191.076 60.5202C190.359 60.5202 189.78 61.1051 189.78 61.8172C189.78 62.3919 190.161 62.9005 190.71 63.0633C190.949 63.1345 191.086 63.3837 191.015 63.6228C190.959 63.8161 190.776 63.9432 190.583 63.9432Z" fill="#1B1A20"/>
<path d="M194.066 59.05C193.873 59.05 193.685 58.9381 193.598 58.7499C193.37 58.2413 193.09 57.9514 192.77 57.8954C192.261 57.7988 191.646 58.2769 191.473 58.4498C191.275 58.6482 190.949 58.6482 190.751 58.4447C190.553 58.2464 190.553 57.9208 190.756 57.7225C190.863 57.6157 191.844 56.6849 192.958 56.8883C193.624 57.0104 194.152 57.4936 194.529 58.3278C194.646 58.5872 194.534 58.8872 194.275 59.0042C194.208 59.0347 194.137 59.05 194.066 59.05Z" fill="white"/>
<path d="M198.764 94.8115C197.732 94.8115 196.761 94.6437 195.846 94.308C191.788 92.8228 190.502 88.591 190.451 88.413C190.38 88.174 190.517 87.9247 190.756 87.8535C190.995 87.7823 191.244 87.9196 191.316 88.1587C191.326 88.1994 192.536 92.1412 196.166 93.4688C199.181 94.5674 203.004 93.6163 207.524 90.6408C207.732 90.5035 208.012 90.5594 208.149 90.768C208.287 90.9765 208.231 91.2562 208.022 91.3936C204.56 93.6671 201.459 94.8115 198.764 94.8115Z" fill="#1B1A20"/>
<path d="M199.974 99.5316C196.426 99.5316 192.877 98.2498 190.599 96.1238C188.83 94.4707 187.854 92.3549 187.782 90.005C187.777 89.7965 187.94 89.6235 188.143 89.6185C188.357 89.6083 188.525 89.7761 188.53 89.9796C188.596 92.1565 189.465 94.0384 191.108 95.5745C193.37 97.6853 196.975 98.9111 200.518 98.7686C204.53 98.611 208.526 96.6426 210.956 93.6315C211.938 92.4159 212.812 90.9663 213.565 89.3133L211.073 88.5554C210.875 88.4944 210.763 88.2859 210.824 88.0875C210.885 87.8891 211.094 87.7772 211.292 87.8383L214.597 88.8403L214.429 89.2268C213.61 91.1036 212.639 92.7414 211.546 94.0995C208.984 97.2733 204.774 99.3485 200.554 99.5163C200.356 99.5316 200.163 99.5316 199.974 99.5316Z" fill="#1B1A20"/>
<path d="M188.581 92.3294C188.464 92.3294 188.347 92.2735 188.27 92.1667C188.154 91.9988 188.194 91.7649 188.362 91.6428L190.325 90.2797C190.492 90.1627 190.726 90.2034 190.848 90.3712C190.965 90.5391 190.924 90.773 190.757 90.8951L188.794 92.2582C188.728 92.3091 188.652 92.3294 188.581 92.3294Z" fill="#1B1A20"/>
<path d="M200.534 99.5212C200.335 99.5212 200.173 99.3686 200.157 99.1651L199.949 95.4725C199.939 95.264 200.096 95.0859 200.3 95.0758C200.508 95.0605 200.686 95.2233 200.696 95.4267L200.905 99.1193C200.915 99.3279 200.757 99.5059 200.554 99.5161C200.544 99.5212 200.539 99.5212 200.534 99.5212Z" fill="#1B1A20"/>
<path d="M208.053 94.6895C207.941 94.6895 207.835 94.6386 207.758 94.547L206.05 92.3854C205.923 92.2226 205.948 91.9886 206.111 91.8564C206.274 91.7292 206.508 91.7547 206.64 91.9174L208.343 94.0791C208.47 94.2419 208.445 94.4758 208.282 94.6081C208.216 94.664 208.135 94.6895 208.053 94.6895Z" fill="#1B1A20"/>
<path d="M210.895 94.3488C210.804 94.3488 210.707 94.3132 210.636 94.2471L208.363 92.0854C208.211 91.943 208.205 91.7039 208.348 91.5564C208.49 91.4038 208.729 91.3988 208.877 91.5412L211.149 93.7028C211.302 93.8453 211.307 94.0843 211.164 94.2318C211.093 94.3132 210.997 94.3488 210.895 94.3488Z" fill="#1B1A20"/>
<path d="M162.682 165.226C162.677 165.226 162.672 165.226 162.667 165.226C162.458 165.221 162.295 165.048 162.306 164.839C163.205 138.503 166.144 117.456 166.175 117.247C166.205 117.044 166.393 116.901 166.597 116.927C166.8 116.957 166.942 117.145 166.917 117.349C166.886 117.557 163.953 138.569 163.053 164.865C163.048 165.063 162.88 165.226 162.682 165.226Z" fill="#1B1A20"/>
<path d="M165.651 130.786L166.21 138.538L179.134 142.378C179.134 142.378 176.226 135.14 165.651 130.786Z" fill="#E2407E"/>
<path d="M169.561 158.08C165.559 157.098 161.553 156.116 157.552 155.14C152.386 153.873 143.982 153.344 140.448 149.041C137.926 145.969 136.345 141.773 134.474 138.248C132.608 134.739 130.742 131.224 128.882 127.715C128.597 127.181 128.312 126.641 128.027 126.102C126.655 123.508 125.272 120.919 123.899 118.33C123.421 117.435 121.804 115.436 121.804 114.394C121.804 114.394 121.804 110.299 128.114 110.299C128.114 110.299 155.345 114.216 155.406 114.226C161.39 115.085 163.337 120.899 165.3 125.817C168.356 133.472 171.823 141.198 174.599 149.016C175.107 150.44 175.59 151.874 176.048 153.304C176.043 153.304 178.26 160.297 169.561 158.08Z" fill="white"/>
<path d="M172.688 156.35C172.535 156.35 172.388 156.254 172.337 156.101L165.784 137.719C165.301 136.361 164.838 134.922 164.396 133.528C163.226 129.876 162.021 126.102 160.15 122.918C158.93 120.838 157.12 119.297 154.919 118.458C151.588 117.186 147.953 116.896 144.44 116.611C142.716 116.474 140.932 116.332 139.198 116.072C138.995 116.042 138.852 115.848 138.883 115.645C138.913 115.442 139.107 115.299 139.31 115.33C141.013 115.584 142.788 115.726 144.501 115.864C148.065 116.149 151.756 116.444 155.188 117.756C157.547 118.656 159.489 120.309 160.796 122.537C162.708 125.792 163.928 129.607 165.107 133.299C165.57 134.749 166.007 136.122 166.49 137.47L173.044 155.852C173.115 156.045 173.013 156.264 172.815 156.33C172.774 156.345 172.729 156.35 172.688 156.35Z" fill="#9DBDFF"/>
<path d="M186.725 161.747L180.35 157.937L174.853 154.656L162.636 151.803C156.825 150.415 156.271 149.204 156.271 149.204L153.993 145.852C149.692 141.158 151.674 139.042 151.674 139.042C147.932 136.529 151.085 134.993 151.085 134.993C149.727 133.477 152.773 133.325 152.773 133.325C150.78 131.55 152.752 131.112 152.752 131.112C157.445 130.08 162.55 136.051 162.55 136.051L169.474 137.918C173.044 138.736 185.485 144.108 189.73 145.964C190.63 146.361 191.159 146.595 191.159 146.595C192.882 151.035 186.725 161.747 186.725 161.747Z" fill="#F9518C"/>
<path d="M186.725 161.747L180.35 157.937C185.068 154.86 188.24 149.158 189.73 145.964C190.63 146.361 191.159 146.595 191.159 146.595C192.882 151.035 186.725 161.747 186.725 161.747Z" fill="#1B1A20"/>
<path d="M167.085 142.17C167.059 142.17 167.039 142.165 167.014 142.16L163.368 141.264C160.643 140.71 158.879 139.006 158.803 138.935C156.464 136.651 152.63 133.594 152.595 133.564C152.468 133.462 152.442 133.274 152.549 133.142C152.651 133.009 152.839 132.989 152.971 133.096C153.012 133.126 156.865 136.204 159.225 138.508C159.24 138.523 160.948 140.161 163.5 140.685L167.156 141.58C167.319 141.62 167.415 141.783 167.375 141.941C167.344 142.078 167.222 142.17 167.085 142.17Z" fill="#1B1A20"/>
<path d="M166.256 145.567C166.23 145.567 166.205 145.562 166.179 145.557C165.651 145.415 165.117 145.288 164.588 145.16C163.144 144.809 161.649 144.448 160.231 143.848C157.17 142.546 154.877 139.855 152.66 137.251C152.045 136.529 151.466 135.847 150.871 135.196C150.759 135.074 150.769 134.886 150.891 134.774C151.013 134.662 151.201 134.673 151.313 134.795C151.913 135.456 152.498 136.137 153.118 136.865C155.289 139.413 157.536 142.053 160.465 143.299C161.832 143.884 163.302 144.235 164.725 144.581C165.259 144.708 165.798 144.84 166.332 144.982C166.49 145.023 166.586 145.191 166.545 145.349C166.51 145.481 166.388 145.567 166.256 145.567Z" fill="#1B1A20"/>
<path d="M164.38 148.594C164.36 148.594 164.339 148.594 164.319 148.589L160.297 147.77C156.891 147.114 155.615 145.033 155.483 144.799L151.435 139.215C151.339 139.082 151.369 138.894 151.502 138.798C151.634 138.701 151.822 138.731 151.918 138.864L155.996 144.499C156.006 144.52 157.165 146.559 160.414 147.185L164.436 148.004C164.599 148.034 164.705 148.197 164.67 148.36C164.644 148.497 164.522 148.594 164.38 148.594Z" fill="#1B1A20"/>
<path d="M247.538 184.518C241.686 184.518 236.322 180.627 234.711 174.701C227.537 148.365 208.517 113.865 208.323 113.519C204.765 107.09 207.088 98.9873 213.514 95.427C219.941 91.8666 228.04 94.191 231.599 100.62C232.443 102.146 252.373 138.309 260.381 167.708C262.313 174.798 258.134 182.117 251.041 184.05C249.877 184.365 248.697 184.518 247.538 184.518Z" fill="#FFA6BC"/>
<path d="M248.982 184.676C247.822 184.747 246.628 184.782 245.397 184.782C235.142 184.782 222.437 182.311 207.565 177.402C196.502 173.755 187.945 169.971 186.481 169.31L196.385 145.71C196.548 145.776 196.706 145.842 196.868 145.913C202.634 148.533 215.883 153.797 228.696 156.854C234.573 158.252 240.364 159.188 245.291 159.188C246.018 159.188 246.724 159.168 247.416 159.127C253.786 158.731 259.364 163.084 260.696 169.137C260.838 169.778 260.93 170.439 260.97 171.116C261.397 178.17 256.039 184.243 248.982 184.676Z" fill="#FFA6BC"/>
<path d="M186.476 169.315C186.476 169.315 180.99 167.81 182.352 163.257L190.655 146.081C190.655 146.081 191.753 144.098 196.38 145.715L186.476 169.315Z" fill="#FFA6BC"/>
<path d="M240.807 159.31C240.791 159.31 240.781 159.31 240.766 159.31C220.81 157.169 196.945 146.371 196.706 146.264C196.518 146.178 196.437 145.954 196.518 145.766C196.604 145.577 196.828 145.496 197.016 145.577C197.255 145.684 221.009 156.431 240.847 158.563C241.056 158.583 241.203 158.771 241.178 158.975C241.157 159.168 240.995 159.31 240.807 159.31Z" fill="#1B1A20"/>
<path d="M228.751 183.313C228.731 183.313 228.716 183.313 228.696 183.307C212.929 180.993 187.493 170.668 186.13 170.109C183.756 169.92 182.21 169.152 181.534 167.82C180.446 165.668 182.078 162.891 182.251 162.617L190.31 145.928C190.401 145.664 191.194 143.568 192.872 143.268C194.057 143.06 195.333 143.797 196.675 145.471C196.802 145.633 196.777 145.867 196.619 146C196.456 146.132 196.223 146.101 196.09 145.944C194.936 144.504 193.899 143.853 193.004 144.011C191.911 144.204 191.194 145.654 191.016 146.193L191.001 146.239L182.907 162.998C182.892 163.023 181.285 165.648 182.215 167.484C182.77 168.573 184.127 169.208 186.257 169.366L186.318 169.371L186.374 169.391C186.639 169.498 212.787 180.21 228.818 182.565C229.021 182.595 229.163 182.784 229.133 182.992C229.092 183.18 228.934 183.313 228.751 183.313Z" fill="#1B1A20"/>
<path d="M232.504 156.808C232.366 156.808 232.229 156.732 232.163 156.594C222.844 137.241 221.791 122.486 222.549 113.514C223.372 103.753 226.367 98.6618 226.494 98.4482C226.601 98.2702 226.83 98.2142 227.008 98.321C227.186 98.4279 227.241 98.6567 227.135 98.8348C227.104 98.8856 224.084 104.028 223.286 113.631C222.549 122.501 223.606 137.099 232.834 156.269C232.926 156.457 232.844 156.681 232.661 156.767C232.615 156.793 232.56 156.808 232.504 156.808Z" fill="#1B1A20"/>
<path d="M186.476 169.687C186.426 169.687 186.38 169.676 186.329 169.656C186.141 169.575 186.049 169.356 186.131 169.163L195.15 148.019L191.566 146.89C191.367 146.829 191.261 146.615 191.322 146.422C191.383 146.224 191.596 146.117 191.789 146.178L196.167 147.551L186.822 169.458C186.761 169.6 186.619 169.687 186.476 169.687Z" fill="#1B1A20"/>
<path d="M188.154 162.383C188.144 162.383 188.134 162.383 188.129 162.383C184.732 162.138 183.853 159.616 183.817 159.509C183.751 159.31 183.858 159.102 184.056 159.036C184.249 158.97 184.463 159.076 184.529 159.27C184.56 159.361 185.302 161.426 188.18 161.63C188.388 161.645 188.541 161.823 188.525 162.032C188.515 162.23 188.347 162.383 188.154 162.383Z" fill="#1B1A20"/>
<path d="M188.154 165.109C188.133 165.109 188.113 165.109 188.087 165.104C187.371 164.982 183.796 164.28 183.796 162.571C183.796 162.362 183.964 162.194 184.173 162.194C184.381 162.194 184.549 162.362 184.549 162.571C184.549 163.364 186.74 164.107 188.22 164.361C188.423 164.397 188.56 164.59 188.525 164.793C188.489 164.982 188.331 165.109 188.154 165.109Z" fill="#1B1A20"/>
<path d="M212.004 144.092C207.81 144.092 204.413 140.695 204.413 136.499V123.498H219.595V136.499C219.595 140.695 216.199 144.092 212.004 144.092Z" fill="#FFEAC5"/>
<path d="M212.843 120.574H204.443C204.235 120.574 204.067 120.406 204.067 120.197C204.067 119.989 204.235 119.821 204.443 119.821H212.843C213.051 119.821 213.219 119.989 213.219 120.197C213.219 120.406 213.051 120.574 212.843 120.574Z" fill="#1B1A20"/>
<path d="M219.594 123.869L206.386 123.813L206.284 121.667C206.274 121.459 206.431 121.286 206.64 121.275C206.853 121.265 207.021 121.423 207.031 121.631L207.097 123.066L219.589 123.122C219.798 123.122 219.966 123.29 219.96 123.498C219.971 123.707 219.803 123.869 219.594 123.869Z" fill="#1B1A20"/>
<path d="M204.587 123.218C204.383 123.218 204.215 123.056 204.21 122.852L204.139 120.406C204.134 120.197 204.297 120.024 204.505 120.019C204.51 120.019 204.51 120.019 204.515 120.019C204.719 120.019 204.887 120.182 204.892 120.385L204.963 122.832C204.968 123.04 204.805 123.213 204.597 123.218C204.592 123.218 204.592 123.218 204.587 123.218Z" fill="#1B1A20"/>
<path d="M217.409 123.869C217.206 123.869 217.038 123.706 217.033 123.503L217.002 122.053C216.997 121.845 217.165 121.677 217.368 121.672C217.582 121.672 217.745 121.835 217.75 122.038L217.78 123.488C217.785 123.696 217.617 123.864 217.414 123.869H217.409Z" fill="#1B1A20"/>
<path d="M219.483 123.869C219.28 123.869 219.112 123.706 219.107 123.503L219.051 120.431C219.046 120.222 219.214 120.054 219.417 120.049C219.626 120.049 219.793 120.212 219.798 120.416L219.854 123.488C219.859 123.696 219.692 123.864 219.488 123.869H219.483Z" fill="#1B1A20"/>
<path d="M133.056 126.168C132.441 126.168 131.846 125.833 131.541 125.248L127.275 117.059C126.838 116.225 127.163 115.192 128.002 114.755C128.836 114.317 129.868 114.643 130.305 115.482L134.571 123.671C135.008 124.505 134.683 125.538 133.844 125.975C133.595 126.107 133.325 126.168 133.056 126.168Z" fill="#9DBDFF"/>
<path d="M106.765 28.9805C111.053 12.9765 127.503 3.47903 143.507 7.76728C159.511 12.0555 169.009 28.5056 164.72 44.5096L156.956 73.4874L127.978 65.7228C111.974 61.4346 102.476 44.9845 106.765 28.9805Z" fill="white"/>
<path d="M113.526 30.7923C116.813 18.5225 129.425 11.2411 141.695 14.5288C153.965 17.8164 161.246 30.4282 157.958 42.6979C154.671 54.9676 142.059 62.249 129.789 58.9614C117.519 55.6737 110.238 43.062 113.526 30.7923Z" fill="#00CEC9"/>
</svg>
