<svg width="19" height="16" viewBox="0 0 19 16" fill="none" xmlns="http://www.w3.org/2000/svg">
<path d="M17.1665 1.94467C17.1665 1.94467 16.0174 2.10081 14.8829 2.2023C14.4449 1.66168 13.8627 1.27851 13.2153 1.1046C12.5678 0.930688 11.8861 0.974434 11.2626 1.22992C10.639 1.4854 10.1036 1.9403 9.72867 2.53309C9.35379 3.12587 9.15756 3.82795 9.1665 4.54435V5.32504C7.88777 5.35974 6.6209 5.05427 5.47884 4.43585C4.33678 3.81744 3.35501 2.90529 2.62105 1.78073C2.62105 1.78073 -0.288042 8.8069 6.25741 11.9296C4.76139 13.0251 2.97584 13.5727 1.1665 13.491C7.71196 17.3944 15.712 13.491 15.712 4.4819C15.7106 4.26448 15.6911 4.04763 15.6538 3.83393C16.1973 3.2417 16.7027 2.61049 17.1665 1.94467Z" stroke="#444444" stroke-width="2" stroke-linecap="round" stroke-linejoin="round"/>
</svg>
